<?xml version="1.0" encoding="UTF-8" standalone="no"?>
<!-- Created with Inkscape (http://www.inkscape.org/) -->

<svg
   xmlns:dc="http://purl.org/dc/elements/1.1/"
   xmlns:cc="http://creativecommons.org/ns#"
   xmlns:rdf="http://www.w3.org/1999/02/22-rdf-syntax-ns#"
   xmlns:svg="http://www.w3.org/2000/svg"
   xmlns="http://www.w3.org/2000/svg"
   xmlns:xlink="http://www.w3.org/1999/xlink"
   xmlns:sodipodi="http://sodipodi.sourceforge.net/DTD/sodipodi-0.dtd"
   xmlns:inkscape="http://www.inkscape.org/namespaces/inkscape"
   sodipodi:docname="RandomButton.svg"
   inkscape:version="0.92.3 (2405546, 2018-03-11)"
   id="svg8"
   version="1.1"
   viewBox="0 0 512 512"
   height="512"
   width="512">
  <sodipodi:namedview
     inkscape:window-maximized="1"
     inkscape:window-y="-9"
     inkscape:window-x="-9"
     inkscape:window-height="1051"
     inkscape:window-width="1920"
     units="px"
     showgrid="true"
     inkscape:current-layer="layer1"
     inkscape:document-units="px"
     inkscape:cy="209.49963"
     inkscape:cx="250.75801"
     inkscape:zoom="1.4"
     inkscape:pageshadow="2"
     inkscape:pageopacity="0.0"
     borderopacity="1.0"
     bordercolor="#666666"
     pagecolor="#ffffff"
     id="base"
     inkscape:snap-bbox="true"
     inkscape:bbox-nodes="true">
    <inkscape:grid
       empspacing="4"
       id="grid815"
       type="xygrid" />
    <inkscape:grid
       empspacing="32"
       empopacity="0.25098039"
       empcolor="#ff3fff"
       opacity="0.1254902"
       color="#ff3fff"
       id="grid817"
       type="xygrid" />
  </sodipodi:namedview>
  <defs
     id="defs2">
    <linearGradient
       id="linearGradient846"
       inkscape:collect="always">
      <stop
         id="stop842"
         offset="0"
         style="stop-color:#ffff00;stop-opacity:1;" />
      <stop
         id="stop844"
         offset="1"
         style="stop-color:#a5ff00;stop-opacity:1" />
    </linearGradient>
    <linearGradient
       id="linearGradient829-7"
       inkscape:collect="always">
      <stop
         id="stop825"
         offset="0"
         style="stop-color:#ffffa9;stop-opacity:1" />
      <stop
         style="stop-color:#ffff00;stop-opacity:1"
         offset="0.5004878"
         id="stop840" />
      <stop
         id="stop827"
         offset="1"
         style="stop-color:#ffffc5;stop-opacity:1" />
    </linearGradient>
    <linearGradient
       y2="417.53333"
       x2="384"
       y1="417.53333"
       x1="127.74999"
       gradientUnits="userSpaceOnUse"
       id="linearGradient838"
       xlink:href="#linearGradient829-7"
       inkscape:collect="always" />
    <radialGradient
       gradientTransform="matrix(1.2475635,1.7470637e-7,-1.7470634e-7,1.2475632,-55.454146,-95.443917)"
       gradientUnits="userSpaceOnUse"
       r="128.25"
       fy="385.53333"
       fx="223.99998"
       cy="385.53333"
       cx="223.99998"
       id="radialGradient848"
       xlink:href="#linearGradient846"
       inkscape:collect="always" />
    <linearGradient
       inkscape:collect="always"
       xlink:href="#linearGradient829-7"
       id="linearGradient4270"
       gradientUnits="userSpaceOnUse"
       x1="127.74999"
       y1="417.53333"
       x2="384"
       y2="417.53333" />
    <linearGradient
       inkscape:collect="always"
       xlink:href="#linearGradient829-7"
       id="linearGradient4272"
       gradientUnits="userSpaceOnUse"
       x1="127.74999"
       y1="417.53333"
       x2="384"
       y2="417.53333" />
    <linearGradient
       inkscape:collect="always"
       xlink:href="#linearGradient829-7"
       id="linearGradient4274"
       gradientUnits="userSpaceOnUse"
       x1="127.74999"
       y1="417.53333"
       x2="384"
       y2="417.53333" />
    <linearGradient
       inkscape:collect="always"
       xlink:href="#linearGradient829-7"
       id="linearGradient4276"
       gradientUnits="userSpaceOnUse"
       x1="127.74999"
       y1="417.53333"
       x2="384"
       y2="417.53333" />
    <linearGradient
       inkscape:collect="always"
       xlink:href="#linearGradient829-7"
       id="linearGradient4278"
       gradientUnits="userSpaceOnUse"
       x1="127.74999"
       y1="417.53333"
       x2="384"
       y2="417.53333" />
    <linearGradient
       inkscape:collect="always"
       xlink:href="#linearGradient829-7"
       id="linearGradient4280"
       gradientUnits="userSpaceOnUse"
       x1="127.74999"
       y1="417.53333"
       x2="384"
       y2="417.53333" />
    <radialGradient
       inkscape:collect="always"
       xlink:href="#linearGradient846"
       id="radialGradient4288"
       cx="223.99998"
       cy="385.53333"
       fx="223.99998"
       fy="385.53333"
       r="128.25"
       gradientTransform="matrix(1.2456142,-7.9069278e-8,7.9069262e-8,1.245614,-55.017617,-94.692357)"
       gradientUnits="userSpaceOnUse" />
  </defs>
  <metadata
     id="metadata5">
    <rdf:RDF>
      <cc:Work
         rdf:about="">
        <dc:format>image/svg+xml</dc:format>
        <dc:type
           rdf:resource="http://purl.org/dc/dcmitype/StillImage" />
        <dc:title />
        <cc:license
           rdf:resource="http://creativecommons.org/licenses/by-sa/4.0/" />
      </cc:Work>
      <cc:License
         rdf:about="http://creativecommons.org/licenses/by-sa/4.0/">
        <cc:permits
           rdf:resource="http://creativecommons.org/ns#Reproduction" />
        <cc:permits
           rdf:resource="http://creativecommons.org/ns#Distribution" />
        <cc:requires
           rdf:resource="http://creativecommons.org/ns#Notice" />
        <cc:requires
           rdf:resource="http://creativecommons.org/ns#Attribution" />
        <cc:permits
           rdf:resource="http://creativecommons.org/ns#DerivativeWorks" />
        <cc:requires
           rdf:resource="http://creativecommons.org/ns#ShareAlike" />
      </cc:License>
    </rdf:RDF>
  </metadata>
  <g
     transform="translate(0,-161.53334)"
     id="layer1"
     inkscape:groupmode="layer"
     inkscape:label="A Button">
    <g
       id="g4286"
       transform="translate(-416.24999,7.75001)">
      <path
         style="opacity:1;fill:url(#linearGradient838);fill-opacity:1;stroke:#000000;stroke-width:0.5;stroke-linecap:butt;stroke-linejoin:round;stroke-miterlimit:4;stroke-dasharray:none;stroke-opacity:1"
         d="m 160.00001,289.53333 h 191.99997 c 17.72801,0 32.00001,14.272 32.00001,32.00001 v 191.99997 c 0,17.72801 -14.272,32.00002 -32.00001,32.00002 H 160.00001 c -17.72801,0 -32.00002,-14.27201 -32.00002,-32.00002 V 321.53334 c 0,-17.72801 14.27201,-32.00001 32.00002,-32.00001 z"
         id="rect819"
         inkscape:connector-curvature="0" />
      <path
         style="opacity:1;fill:url(#radialGradient848);fill-opacity:1;stroke:#000000;stroke-width:0.5;stroke-linecap:butt;stroke-linejoin:round;stroke-miterlimit:4;stroke-dasharray:none;stroke-opacity:1"
         d="m 128.00001,257.53333 h 191.99997 c 17.72801,0 32.00001,14.272 32.00001,32.00001 v 191.99997 c 0,17.72801 -14.272,32.00002 -32.00001,32.00002 H 128.00001 c -17.72801,0 -32.000018,-14.27201 -32.000018,-32.00002 V 289.53334 c 0,-17.72801 14.272008,-32.00001 32.000018,-32.00001 z"
         id="rect823"
         inkscape:connector-curvature="0" />
    </g>
    <path
       inkscape:connector-curvature="0"
       id="rect850"
       d="m 608,257.53334 c -17.72801,0 -32,14.27199 -32,32 v 192 c 0,17.72801 14.27199,32 32,32 0,17.72801 14.27199,32 32,32 h 192 c 17.72801,0 32,-14.27199 32,-32 v -192 c 0,-17.72801 -14.27199,-32 -32,-32 0,-17.72801 -14.27199,-32 -32,-32 z"
       style="opacity:1;fill:#ffff00;fill-opacity:1;stroke:#000000;stroke-width:0.5;stroke-linecap:butt;stroke-linejoin:round;stroke-miterlimit:4;stroke-dasharray:none;stroke-opacity:1" />
    <g
       id="g4239"
       transform="translate(0.250008,-0.24999)">
      <path
         id="path4225"
         style="opacity:1;fill:url(#linearGradient4270);fill-opacity:1;stroke:#000000;stroke-width:0.5;stroke-linecap:butt;stroke-linejoin:round;stroke-miterlimit:4;stroke-dasharray:none;stroke-opacity:1"
         d="m 160.00001,289.53333 c 0,0 191.99997,0 191.99997,0 17.72801,0 32.00001,14.272 32.00001,32.00001 0,0 0,191.99997 0,191.99997 0,17.72801 -14.272,32.00002 -32.00001,32.00002 0,0 -191.99997,0 -191.99997,0 -17.72801,0 -32.00002,-14.27201 -32.00002,-32.00002 0,0 0,-191.99997 0,-191.99997 0,-17.72801 14.27201,-32.00001 32.00002,-32.00001 0,0 0,0 0,0"
         inkscape:connector-curvature="0" />
      <path
         id="path4227"
         style="opacity:1;fill:url(#linearGradient4272);fill-opacity:1;stroke:#000000;stroke-width:0.5;stroke-linecap:butt;stroke-linejoin:round;stroke-miterlimit:4;stroke-dasharray:none;stroke-opacity:1"
         d="m 154.66668,284.2 c 0,0 191.99997,0 191.99997,0 17.72801,0 32.00001,14.272 32.00001,32.00001 0,0 0,191.99997 0,191.99997 0,17.72801 -14.272,32.00002 -32.00001,32.00002 0,0 -191.99997,0 -191.99997,0 -17.72801,0 -32.00002,-14.27201 -32.00002,-32.00002 0,0 0,-191.99997 0,-191.99997 0,-17.72801 14.27201,-32.00001 32.00002,-32.00001 0,0 0,0 0,0"
         inkscape:connector-curvature="0" />
      <path
         id="path4229"
         style="opacity:1;fill:url(#linearGradient4274);fill-opacity:1;stroke:#000000;stroke-width:0.5;stroke-linecap:butt;stroke-linejoin:round;stroke-miterlimit:4;stroke-dasharray:none;stroke-opacity:1"
         d="m 149.33334,278.86666 c 0,0 191.99997,0 191.99997,0 17.72801,0 32.00001,14.272 32.00001,32.00001 0,0 0,191.99997 0,191.99997 0,17.72801 -14.272,32.00002 -32.00001,32.00002 0,0 -191.99997,0 -191.99997,0 -17.72801,0 -32.00002,-14.27201 -32.00002,-32.00002 0,0 0,-191.99997 0,-191.99997 0,-17.72801 14.27201,-32.00001 32.00002,-32.00001 0,0 0,0 0,0"
         inkscape:connector-curvature="0" />
      <path
         id="path4231"
         style="opacity:1;fill:url(#linearGradient4276);fill-opacity:1;stroke:#000000;stroke-width:0.5;stroke-linecap:butt;stroke-linejoin:round;stroke-miterlimit:4;stroke-dasharray:none;stroke-opacity:1"
         d="m 144.00001,273.53333 c 0,0 191.99997,0 191.99997,0 17.72801,0 32.00001,14.272 32.00001,32.00001 0,0 0,191.99997 0,191.99997 0,17.72801 -14.272,32.00002 -32.00001,32.00002 0,0 -191.99997,0 -191.99997,0 -17.72801,0 -32.00002,-14.27201 -32.00002,-32.00002 0,0 0,-191.99997 0,-191.99997 0,-17.72801 14.27201,-32.00001 32.00002,-32.00001 0,0 0,0 0,0"
         inkscape:connector-curvature="0" />
      <path
         id="path4233"
         style="opacity:1;fill:url(#linearGradient4278);fill-opacity:1;stroke:#000000;stroke-width:0.5;stroke-linecap:butt;stroke-linejoin:round;stroke-miterlimit:4;stroke-dasharray:none;stroke-opacity:1"
         d="m 138.66668,268.2 c 0,0 191.99997,0 191.99997,0 17.72801,0 32.00001,14.272 32.00001,32.00001 0,0 0,191.99997 0,191.99997 0,17.72801 -14.272,32.00002 -32.00001,32.00002 0,0 -191.99997,0 -191.99997,0 -17.72801,0 -32.00002,-14.27201 -32.00002,-32.00002 0,0 0,-191.99997 0,-191.99997 0,-17.72801 14.27201,-32.00001 32.00002,-32.00001 0,0 0,0 0,0"
         inkscape:connector-curvature="0" />
      <path
         id="path4235"
         style="opacity:1;fill:url(#linearGradient4280);fill-opacity:1;stroke:#000000;stroke-width:0.5;stroke-linecap:butt;stroke-linejoin:round;stroke-miterlimit:4;stroke-dasharray:none;stroke-opacity:1"
         d="m 133.33334,262.86666 c 0,0 191.99997,0 191.99997,0 17.72801,0 32.00001,14.272 32.00001,32.00001 0,0 0,191.99997 0,191.99997 0,17.72801 -14.272,32.00002 -32.00001,32.00002 0,0 -191.99997,0 -191.99997,0 -17.72801,0 -32.00001,-14.27201 -32.00001,-32.00002 0,0 0,-191.99997 0,-191.99997 0,-17.72801 14.272,-32.00001 32.00001,-32.00001 0,0 0,0 0,0"
         inkscape:connector-curvature="0" />
      <path
         id="path4237"
         style="opacity:1;fill:url(#radialGradient4288);fill-opacity:1;stroke:#000000;stroke-width:0.5;stroke-linecap:butt;stroke-linejoin:round;stroke-miterlimit:4;stroke-dasharray:none;stroke-opacity:1"
         d="m 128.00001,257.53333 c 0,0 191.99997,0 191.99997,0 17.72801,0 32.00001,14.272 32.00001,32.00001 0,0 0,191.99997 0,191.99997 0,17.72801 -14.272,32.00002 -32.00001,32.00002 0,0 -191.99997,0 -191.99997,0 -17.72801,0 -32.000018,-14.27201 -32.000018,-32.00002 0,0 0,-191.99997 0,-191.99997 0,-17.72801 14.272008,-32.00001 32.000018,-32.00001 0,0 0,0 0,0"
         inkscape:connector-curvature="0" />
    </g>
  </g>
</svg>
